<?xml version="1.0" encoding="iso-8859-1"?>
<!-- Generator: Adobe Illustrator 16.0.0, SVG Export Plug-In . SVG Version: 6.00 Build 0)  -->
<!DOCTYPE svg PUBLIC "-//W3C//DTD SVG 1.1//EN" "http://www.w3.org/Graphics/SVG/1.1/DTD/svg11.dtd">
<svg version="1.1" id="Capa_1" xmlns="http://www.w3.org/2000/svg" xmlns:xlink="http://www.w3.org/1999/xlink" x="0px" y="0px"
	 width="45.903px" height="45.903px" viewBox="0 0 45.903 45.903" style="enable-background:new 0 0 45.903 45.903;"
	 xml:space="preserve">
<g>
	<g>
		<path d="M22.321,0.833c-11.807,0-18.861,9.612-18.861,18.905c0,3.874,1.631,7.651,4.601,10.669L8.054,30.42l-1.147-0.677
			c-0.69-0.409-1.563-0.477-2.311-0.177c-0.751,0.301-1.33,0.944-1.55,1.724L0.098,41.733c-0.32,1.139,0.166,2.357,1.182,2.965
			c0.407,0.243,0.872,0.372,1.346,0.372c0.686,0,1.335-0.263,1.827-0.74l3.858-3.739l1.329,0.784
			c0.594,0.353,1.318,0.457,1.991,0.282c0.677-0.175,1.247-0.604,1.605-1.207l2.951-5c2.682,0.945,5.537,1.425,8.494,1.425
			c11.702,0,21.223-7.688,21.223-17.137C45.904,10.445,37.084,0.833,22.321,0.833z M24.682,33.875c-2.711,0-5.32-0.452-7.756-1.347
			c-1.163-0.424-2.537,0.068-3.164,1.129l-2.918,4.943L9.59,37.861c-0.995-0.587-2.331-0.431-3.162,0.375l-3.064,2.971l2.437-8.634
			l1.049,0.619c0.594,0.352,1.323,0.455,1.989,0.283c0.678-0.174,1.248-0.603,1.607-1.209l0.346-0.586
			c0.615-1.039,0.442-2.357-0.42-3.205C1.486,19.734,8.801,3.833,22.321,3.833c12.884,0,20.583,8.087,20.583,15.905
			C42.904,27.533,34.729,33.875,24.682,33.875z"/>
		<path d="M11.019,22.7l-0.042-0.118c-1.251-3.58-0.705-6.44,1.15-9.929c0.579-1.055,1.046-1.666,1.047-1.666
			c0.202-0.266,0.165-0.649-0.093-0.869c-0.246-0.209-0.62-0.223-0.901,0.079c-2.895,3.582-4.531,8.091-3.242,12.522
			c0.115,0.383,0.182,0.602,0.182,0.602c0.004,0.014,0.01,0.032,0.015,0.046c0.185,0.521,0.756,0.793,1.276,0.608
			C10.931,23.792,11.204,23.221,11.019,22.7z"/>
		<path d="M10.45,24.63c-0.449,0.321-0.554,0.945-0.232,1.395c0.414,0.584,1.562,2.093,2.302,2.093c0.921,0,1.357-1.158,0.647-1.763
			C11.978,25.347,11.55,23.841,10.45,24.63z"/>
	</g>
</g>
<g>
</g>
<g>
</g>
<g>
</g>
<g>
</g>
<g>
</g>
<g>
</g>
<g>
</g>
<g>
</g>
<g>
</g>
<g>
</g>
<g>
</g>
<g>
</g>
<g>
</g>
<g>
</g>
<g>
</g>
</svg>
