<?xml version="1.0" encoding="iso-8859-1"?>
<!-- Generator: Adobe Illustrator 19.0.0, SVG Export Plug-In . SVG Version: 6.00 Build 0)  -->
<svg version="1.1" id="Capa_1" xmlns="http://www.w3.org/2000/svg" xmlns:xlink="http://www.w3.org/1999/xlink" x="0px" y="0px"
	 viewBox="0 0 512 512" style="enable-background:new 0 0 512 512;" xml:space="preserve">
<g>
	<g>
		<path d="M208,0C93.312,0,0,93.312,0,208v192c0,6.464,3.904,12.32,9.888,14.784C11.872,415.584,13.952,416,16,416
			c4.16,0,8.256-1.632,11.328-4.672l45.408-45.44C110.464,398.304,157.92,416,208,416c114.688,0,208-93.312,208-208S322.688,0,208,0
			z"/>
	</g>
</g>
<g>
	<g>
		<path d="M445.44,174.976C446.944,185.792,448,196.768,448,208c0,132.352-107.648,240-240,240c-11.072,0-22.048-0.928-32.928-2.432
			C210.304,486.176,262.144,512,320,512c45.856,0,89.248-16.032,123.904-45.472l40.768,40.768C487.744,510.368,491.84,512,496,512
			c2.048,0,4.16-0.416,6.112-1.216C508.096,508.32,512,502.464,512,496V320C512,262.08,486.112,210.208,445.44,174.976z"/>
	</g>
</g>
<g>
</g>
<g>
</g>
<g>
</g>
<g>
</g>
<g>
</g>
<g>
</g>
<g>
</g>
<g>
</g>
<g>
</g>
<g>
</g>
<g>
</g>
<g>
</g>
<g>
</g>
<g>
</g>
<g>
</g>
</svg>
